<svg xmlns="http://www.w3.org/2000/svg" width="147" height="62" viewBox="0 0 147 62">
    <g fill="none" fill-rule="evenodd">
        <g>
            <g>
                <g transform="translate(-647 -127) translate(647 127) translate(46.836)">
                    <ellipse cx="52.664" cy="33.5" fill="#90DB42" rx="8.5" ry="4.5"/>
                    <ellipse cx="5.955" cy="14.549" fill="#90DB42" rx="4.551" ry="2.618" transform="rotate(21 5.955 14.55)"/>
                    <ellipse cx="36.664" cy="22" fill="#90DB42" rx="6.5" ry="13"/>
                    <ellipse cx="21.739" cy="17.655" fill="#46C676" rx="15.189" ry="8.924" transform="rotate(61 21.74 17.655)"/>
                    <ellipse cx="47.959" cy="25.896" fill="#46C676" rx="13.103" ry="6.994" transform="rotate(129 47.959 25.896)"/>
                    <ellipse cx="48.875" cy="8.623" fill="#90DB42" rx="6.637" ry="3.848" transform="rotate(126 48.875 8.623)"/>
                    <ellipse cx="30.882" cy="6.977" fill="#46C676" rx="4.884" ry="2.802" transform="rotate(99 30.882 6.977)"/>
                    <ellipse cx="11.034" cy="26.79" fill="#90DB42" rx="9.614" ry="5.593" transform="rotate(44 11.034 26.79)"/>
                    <path fill="#5D3B22" d="M13.414 31.102c8.696 6.988 12.6 13.051 11.716 18.19-.885 5.138-3.442 8.66-7.672 10.566l28.19.142c-6.89-1.85-10.335-4.447-10.335-7.794 0-3.347 3.615-7.946 10.845-13.796l3.006-2.527-4.733 1.85-1.759.507c-.802.23-1.64-.233-1.87-1.035-.131-.454-.042-.943.24-1.322l3.701-6.434-6.384 6.434-.409.318c-2.276 1.764-5.552 1.35-7.317-.926-.273-.352-.5-.738-.675-1.149L28.693 26.2l-.644 7.196c.048.518-.333.976-.851 1.024-.422.04-.819-.208-.968-.605l-.159-.42-3.12-7.195L20.176 21l1.797 6.474 1.973 5.92.103.296c.35 1.004-.179 2.101-1.182 2.452-.595.207-1.253.11-1.763-.259l-5.037-4.78-3.903-1.654 1.25 1.653z"/>
                </g>
                <path fill="#135F63" fill-rule="nonzero" d="M15.35 59.889c.06-.63-.09-1.48-.09-2.08 0-2.867.12-4.568 0-6.93-.031-.82-.334-1.64-.274-2.395.03-.252-.06-1.04-.06-1.166-.06-1.008.03-1.954-.273-3.025l.212-2.3c0-.031-.06-.63-.182-.725l-.696-.283c-.06-.032-.546.283-.758.473-.81.767-.926 2.293-1.028 3.92l-.027.446c-.02.298-.04.598-.066.895-.09.032-.575.378-.666.441-.394.22-2.363.914-2.757.756-.152-.126-.243-3.087-.273-3.686-.037-.487-.084-1.124-.145-1.781l-.038-.396c-.138-1.386-.335-2.744-.605-2.864-.06-.031-.12.063-.181.032-.121-.063-.212-.19-.303-.221-.182.095-.94.63-.97 1.071-.182 2.111 0 4.474.03 6.648.03.315.213.788.213 1.134 0 .032-.061.126-.091.126l-.849.095c-.151 0-.272-.19-.454-.252-.364-.158-1.545-.41-1.757-.347l-1.485-.598c-.333-.126-.909.976-.939 1.355-.06.535.97 1.228 1.273 1.67.848 1.228 1.454 2.93 2 4.347l.09.22c.515 1.356 1.575 5.231 2.818 5.798 1.454.567 1.817-1.512 1.908-2.678.091-1.418 0-2.993-.06-4.474-.061-1.134-.273-2.3-.182-3.308.03-.032.818-.441 1.212-.473.757-.378 1.67-.315 2.277-.85 0 1.417.995 11.374 2.449 12.004.363.126.697-.19.727-.599zm-8.483-3.403c-.212-.472-.848-1.638-.848-1.859l-1.515-3.56c-.267-.361-.488-.993-.536-1.093l-.003-.004c.14.045 1.865-.091 2.417.12.101.045.23 1.326.333 2.71l.03.418c.099 1.393.167 2.776.152 3.016 0 .063-.03.22-.03.252zm18.905 2.773c.515 0 .757-1.859.788-2.08v-.472c0-1.386-.364-3.686-1.636-4.065-.152-1.04-.637-2.71-1.91-2.772-.18 0-.272 0-.453.063-2.212.882-4.242 3.97-4.242 6.396 0 1.04.485 2.331 1.636 2.331 1.545 0 3.272-1.733 4.726-3.655.06.063.091.127.121.19.093.351.163.743.221 1.142l.048.342c.174 1.31.265 2.58.7 2.58zM20.5 56.045c-.151-2.142 1.909-4.064 3.212-4.064.242 0 .394.44.394.63-.212 1.512-3.12 3.56-3.606 3.434zM29.165 62c1.606 0 2.848-1.134 3.817-2.048l.122-.126c.727-.662 1.726-1.89 1.726-2.867 0-1.45-1.272-2.3-2.666-2.773-.181-.063-1.726-.44-1.726-.504 0-.031.06-.22.09-.283.788-1.009 1.576-2.237 2.666-3.057.061.095.455.568.758.568.212 0 .697-1.324.697-1.639 0-.504-.606-1.008-1.182-1.008-1.333 0-2.514.914-3.332 1.733l.06.063c-.03.094-.606.378-.697.441-.818.63-1.727 1.796-1.727 2.773 0 1.89 2.909 2.489 4.575 2.804l.273.063c0 .567-1.454 1.922-1.848 2.363-.243.252-.576.378-.788.63-.333.346-.697.756-1 1.134-.212.19-.818.378-.818.599 0 .063.03.126.03.157-.15 0-.181.158-.181.19 0 .535 1.09.787 1.151.787zm7.998-.914c.606 0 1.242-.976 1.303-1.512l.697-5.703v-3.024c-.152-.347-.03-1.26-.606-1.26-.606 0-.687.554-.909.976l-.13.142c0-.105-.482 1.937-1.445 6.128v1.04c0 .283-.03.693-.03 1.134 0 .977.15 2.08 1.12 2.08zm.303-7.246v-.301c.005-1.316.041-2.755.182-2.755h.09c0 .976-.18 2.016-.272 3.056zm7.514 5.04c.03-.472-.243-1.039-.424-1.48 0-.252-.061-1.292-.091-1.512.06-1.009.181-2.363.939-3.246.06-.126.424-.504.515-.472.182 0 .333.22.485.22.272.032 1.211-.567 1.211-.85.03-.347-.575-1.26-.939-1.26-1.272-.064-2.454.63-3.302 1.354-.212.126-.364.378-.576.504-.151-.378-.545-.945-1.03-.945-.606-.031-1.06.315-1.09.882-.03.788.272 1.544.393 2.3.152 1.135.334 2.206.576 3.372.091.472.212 2.457.697 2.489.03 0 .09-.032.121-.032.333 0 .242.22.515.252.727.032 1.97-.882 2-1.575zm5.12 1.104c1.454 0 2.272-1.607 2.938-2.584.697-1.071 1.606-2.142 2.394-3.15v.535l.485 2.773c.212 1.134 1.575 1.984 2.757 1.984 1.09 0 1.726-.819 1.726-1.795 0-.725-.393-1.072-1-1.544l-.181-.158c-.182-.724-.848-1.292-1.151-1.985-.364-.945-.667-2.867-1.394-2.867-.364 0-.697.063-.94.347-1.605 1.48-2.847 3.15-4.301 4.694-.03-.535.242-1.229.363-1.827.303-1.575.788-2.804.788-4.19 0-.6-.06-.82-.788-.82-1.06.914-1.242 2.017-1.605 3.34-.515 1.796-1.333 3.592-1.333 5.482 0 .788.181 1.765 1.242 1.765zm48.11-2.647l.091-.095.09-1.291c0-.063.062-.158.062-.19.302-.976.696-4.19 1.726-3.97.303.568 1.182 2.364 1.94 4.223.181.44.666 2.08 1.484 2.174.273 0 .485-.41.515-.662v-.094c0-.064-.03-.158-.03-.221-.243-1.197-.485-2.395-.788-3.592-.697-1.292-1.515-4.064-3.514-4.222-.667-.031-1.091.284-1.576.756 0 .032.03.063.03.126 0 .221-.333.316-.393.505-.243.283-.485.819-.637 1.102-.151-1.26-.606-3.434-1.666-3.497-.394-.031-.576.126-.576.504-.03.19.152.473.122.63.454 2.426.606 5.609.454 8.13-.06.913.485 2.268 1.606 2.362 1.272.126.757-2.962 1.06-2.678zm14.573 1.922c.515 0 .757-1.859.787-2.08v-.472c0-1.386-.363-3.686-1.636-4.065-.151-1.04-.636-2.71-1.908-2.772-.182 0-.273 0-.455.063-2.211.882-4.241 3.97-4.241 6.396 0 1.04.484 2.331 1.636 2.331 1.545 0 3.272-1.733 4.726-3.655.06.063.09.127.121.19.093.351.163.743.22 1.142l.049.342c.174 1.31.265 2.58.7 2.58zm-5.272-3.214c-.151-2.142 1.909-4.064 3.211-4.064.243 0 .394.44.394.63-.212 1.512-3.12 3.56-3.605 3.434zm14.724 3.214c.515 0 .757-1.859.788-2.08v-.472c0-1.386-.364-3.686-1.636-4.065-.152-1.04-.636-2.71-1.909-2.772-.182 0-.273 0-.454.063-2.212.882-4.242 3.97-4.242 6.396 0 1.04.485 2.331 1.636 2.331 1.545 0 3.272-1.733 4.726-3.655.061.063.091.127.122.19.092.351.162.743.22 1.142l.048.342c.174 1.31.266 2.58.701 2.58zm-5.272-3.214c-.151-2.142 1.91-4.064 3.212-4.064.242 0 .394.44.394.63-.212 1.512-3.12 3.56-3.606 3.434zm9.847 4.569c1.515 0 3.06-1.355 4.06-2.899.454 1.45.969 2.867 2.211 2.867.273 0 1-.063 1-.535 0-.568-2.09-1.733-2.212-3.687v-.126c.94-1.89 1.576-3.497 2-5.671-.03-.095-.03-.189-.03-.315 0-.662.242-1.355.242-2.111 0-1.859-.576-5.199-2.363-5.199-1.97 0-2.636 4.222-2.636 6.333 0 1.387.03 2.773.303 4.096.121.536.636 1.733.636 2.143 0 2.079-.818 2.804-1.696 2.804-1 0-1.303-.977-1.303-2.017 0-.787.666-2.016 1.787-2.016.182.189.243.819.546.819.151 0 .12-.158.12-.347 0-1.228-.817-1.795-1.665-1.795-1.636 0-3.575 2.174-3.575 4.568 0 1.922 1.272 3.088 2.575 3.088zm4.453-6.963c-.151 0-.303-2.332-.303-2.804 0-.063-.06-.568-.06-.757 0-1.102.242-4.915 1.484-4.915.515 0 .636 1.103.636 1.922 0 1.166-.06 2.426-.484 3.624-.06.378-1.121 2.867-1.273 2.93zm6.968-4.254c.728 0 .788.22.788.82 0 1.386-.485 2.615-.788 4.19-.12.598-.393 1.292-.363 1.827.363-.386.714-.78 1.06-1.176l1.034-1.195c.693-.795 1.405-1.583 2.208-2.323.242-.284.576-.347.94-.347.726 0 1.03 1.922 1.393 2.867.303.693.97 1.26 1.151 1.985l.182.158c.606.472 1 .819 1 1.544 0 .976-.637 1.795-1.727 1.795-1.182 0-2.545-.85-2.757-1.984l-.485-2.773v-.536c-.788 1.009-1.697 2.08-2.393 3.151-.667.977-1.485 2.584-2.94 2.584-1.06 0-1.241-.977-1.241-1.765 0-1.89.818-3.686 1.333-5.482.363-1.323.545-2.426 1.605-3.34zM37.596 47.28c.49-.392.945-.006 1.31.352l.15.15.07.068c.392.374-.483 1.143-.665 1.407-.182.264-1.014-.013-1.259-.183-.245-.17-.201-1.317.394-1.794z" transform="translate(-647 -127) translate(647 127)"/>
            </g>
        </g>
    </g>
</svg>
